<?xml version="1.0" encoding="UTF-8" standalone="no"?>
<!DOCTYPE svg PUBLIC "-//W3C//DTD SVG 20010904//EN"
              "http://www.w3.org/TR/2001/REC-SVG-20010904/DTD/svg10.dtd">

<svg xmlns="http://www.w3.org/2000/svg"
     width="6.66667in" height="6.66667in"
     viewBox="0 0 2000 2000">
  <path id="edges"
        fill="#00A8E8" stroke="none" stroke-width="1"
        d="M 420.00,368.00
           C 420.00,368.00 366.00,416.00 366.00,416.00
             366.00,416.00 642.73,969.45 642.73,969.45
             642.73,969.45 705.45,926.73 705.45,926.73
             705.45,926.73 496.73,509.64 496.73,509.64
             496.73,509.64 931.62,799.12 931.62,799.12
             931.62,799.12 382.38,1166.29 381.87,1169.09
             381.42,1171.61 380.84,1228.70 382.15,1231.82
             383.23,1234.36 968.73,1625.87 971.64,1629.27
             971.64,1629.27 1031.39,1626.09 1031.39,1626.09
             1034.34,1622.62 1618.81,1232.28 1619.85,1229.82
             1621.00,1227.08 1621.27,1174.55 1621.27,1174.55
             1621.27,1174.55 1365.09,998.73 1365.09,998.73
             1365.09,998.73 1331.09,1066.73 1331.09,1066.73
             1331.09,1066.73 1529.82,1200.55 1529.82,1200.55
             1529.82,1200.55 1098.36,1488.91 1098.36,1488.91
             1098.36,1488.91 1634.00,418.00 1634.00,418.00
             1634.00,418.00 1580.55,367.64 1580.55,367.64
             1580.55,367.64 999.82,754.73 999.82,754.73
             999.82,754.73 420.00,368.00 420.00,368.00 Z
           M 1504.36,509.09
           C 1504.36,509.09 1001.00,1516.00 1001.00,1516.00
             1001.00,1516.00 758.00,1030.00 758.00,1030.00
             758.00,1030.00 696.46,1069.67 695.66,1073.09
             695.08,1075.53 903.82,1491.82 903.82,1491.82
             903.82,1491.82 468.73,1200.00 468.73,1200.00
             468.73,1200.00 996.06,845.60 1000.00,845.60
             1004.70,845.60 1236.00,1003.00 1236.00,1003.00
             1236.00,1003.00 1269.64,934.55 1269.64,934.55
             1269.64,934.55 1070.00,799.00 1070.00,799.00
             1070.00,799.00 1504.36,509.09 1504.36,509.09 Z
           M 1101.00,1486.00 1101.00,1486.00 1101.00,1486.00 1101.00,1486.00" />
	<path id="NodesL"
        fill="#00A8E8" stroke="none" stroke-width="1"
        d="M 380.00,200.21
           C 349.71,204.82 330.36,209.48 303.00,224.31
             257.37,249.04 223.48,291.54 208.28,341.00
             204.18,354.34 200.02,374.12 200.00,388.00
             200.00,388.00 200.00,412.00 200.00,412.00
             200.03,430.42 206.64,456.84 213.45,474.00
             235.10,528.55 277.89,569.30 333.00,589.05
             347.46,594.23 370.72,599.82 386.00,600.00
             386.00,600.00 412.00,600.00 412.00,600.00
             439.31,599.96 475.41,588.07 499.00,574.57
             526.33,558.94 548.18,539.05 565.97,513.00
             615.59,440.37 611.06,339.66 554.72,272.00
             535.51,248.94 514.74,233.09 488.00,219.75
             467.12,209.34 435.40,200.04 412.00,200.21
             412.00,200.21 380.00,200.21 380.00,200.21 Z
           M 380.00,998.21
           C 353.05,1002.33 332.67,1006.62 308.00,1019.26
             257.54,1045.12 220.93,1089.56 205.29,1144.00
             201.74,1156.35 198.02,1175.25 198.00,1188.00
             198.00,1188.00 198.00,1212.00 198.00,1212.00
             198.02,1227.67 203.41,1252.16 208.69,1267.00
             230.64,1328.68 279.79,1376.39 343.00,1394.42
             354.81,1397.79 373.87,1401.85 386.00,1402.00
             386.00,1402.00 412.00,1402.00 412.00,1402.00
             437.10,1401.96 474.22,1390.89 496.00,1378.58
             533.52,1357.37 560.97,1330.58 580.74,1292.00
             620.61,1214.22 604.26,1114.57 541.00,1054.04
             524.13,1037.90 503.44,1023.97 482.00,1014.72
             461.68,1005.95 434.22,998.03 412.00,998.21
             412.00,998.21 380.00,998.21 380.00,998.21 Z" />
	<path id="NodesM"
        fill="#00A8E8" stroke="none" stroke-width="1"
        d="M 978.00,600.21
           C 947.71,604.82 928.36,609.48 901.00,624.31
             855.37,649.04 821.48,691.54 806.28,741.00
             802.18,754.34 798.02,774.12 798.00,788.00
             798.00,788.00 798.00,812.00 798.00,812.00
             798.03,830.42 804.64,856.84 811.45,874.00
             833.10,928.55 875.89,969.30 931.00,989.05
             945.46,994.23 968.72,999.82 984.00,1000.00
             984.00,1000.00 1010.00,1000.00 1010.00,1000.00
             1037.31,999.96 1073.41,988.07 1097.00,974.57
             1124.33,958.94 1146.18,939.05 1163.97,913.00
             1213.59,840.37 1209.06,739.66 1152.72,672.00
             1133.51,648.94 1112.74,633.09 1086.00,619.75
             1065.12,609.34 1033.40,600.04 1010.00,600.21
             1010.00,600.21 978.00,600.21 978.00,600.21 Z
           M 980.00,1396.21
           C 948.57,1400.91 927.19,1406.13 899.00,1421.86
             850.48,1448.94 815.01,1496.21 801.63,1550.00
             798.85,1561.17 796.02,1576.56 796.00,1588.00
             796.00,1588.00 796.00,1612.00 796.00,1612.00
             796.03,1633.61 803.94,1662.16 812.43,1682.00
             835.13,1735.06 880.43,1775.80 935.00,1794.00
             949.03,1798.68 971.31,1803.82 986.00,1804.00
             986.00,1804.00 1012.00,1804.00 1012.00,1804.00
             1040.46,1803.96 1077.44,1791.63 1102.00,1777.57
             1123.00,1765.55 1142.04,1749.68 1157.39,1731.00
             1206.51,1671.20 1217.98,1589.07 1187.57,1518.00
             1177.95,1495.50 1163.60,1474.83 1146.91,1457.00
             1131.32,1440.34 1109.36,1425.91 1089.00,1415.75
             1068.13,1405.35 1035.37,1396.04 1012.00,1396.21
             1012.00,1396.21 980.00,1396.21 980.00,1396.21 Z" />
	<path id="NodesR"
        fill="#00A8E8" stroke="none" stroke-width="1"
        d="M 1582.00,198.21
           C 1555.05,202.33 1534.67,206.62 1510.00,219.26
             1459.54,245.12 1422.93,289.56 1407.29,344.00
             1403.74,356.35 1400.02,375.25 1400.00,388.00
             1400.00,388.00 1400.00,412.00 1400.00,412.00
             1400.02,427.67 1405.41,452.16 1410.69,467.00
             1432.64,528.68 1481.79,576.39 1545.00,594.42
             1556.81,597.79 1575.87,601.85 1588.00,602.00
             1588.00,602.00 1614.00,602.00 1614.00,602.00
             1639.10,601.96 1676.22,590.89 1698.00,578.58
             1735.52,557.37 1762.97,530.58 1782.74,492.00
             1822.61,414.22 1806.26,314.57 1743.00,254.04
             1726.13,237.90 1705.44,223.97 1684.00,214.72
             1663.68,205.95 1636.22,198.03 1614.00,198.21
             1614.00,198.21 1582.00,198.21 1582.00,198.21 Z
           M 1580.00,1000.21
           C 1549.71,1004.82 1530.36,1009.48 1503.00,1024.31
             1457.37,1049.04 1423.48,1091.54 1408.28,1141.00
             1404.18,1154.34 1400.02,1174.12 1400.00,1188.00
             1400.00,1188.00 1400.00,1212.00 1400.00,1212.00
             1400.03,1230.42 1406.64,1256.84 1413.45,1274.00
             1435.10,1328.55 1477.89,1369.30 1533.00,1389.05
             1547.46,1394.23 1570.72,1399.82 1586.00,1400.00
             1586.00,1400.00 1612.00,1400.00 1612.00,1400.00
             1639.31,1399.96 1675.41,1388.07 1699.00,1374.57
             1726.33,1358.94 1748.18,1339.05 1765.97,1313.00
             1815.59,1240.37 1811.06,1139.66 1754.72,1072.00
             1735.51,1048.94 1714.74,1033.09 1688.00,1019.75
             1667.12,1009.34 1635.40,1000.04 1612.00,1000.21
             1612.00,1000.21 1580.00,1000.21 1580.00,1000.21 Z" />
</svg>
